<svg width="377" height="42" viewBox="0 0 377 42" fill="none" xmlns="http://www.w3.org/2000/svg">
<path d="M20.48 22.72H37.056L33.344 41.28H25.792L24.576 37.184H24.32C23.2107 38.464 21.888 39.552 20.352 40.448C18.8587 41.344 16.896 41.792 14.464 41.792C12.5867 41.792 10.7733 41.4934 9.02401 40.896C7.31734 40.256 5.78134 39.2747 4.41601 37.952C3.09334 36.5867 2.02668 34.816 1.21601 32.64C0.405343 30.464 9.77516e-06 27.84 9.77516e-06 24.768C9.77516e-06 21.44 0.51201 18.2827 1.53601 15.296C2.56001 12.3094 4.09601 9.68536 6.14401 7.42403C8.19201 5.12003 10.752 3.3067 13.824 1.98403C16.896 0.66136 20.48 2.67029e-05 24.576 2.67029e-05C27.7333 2.67029e-05 30.4853 0.362694 32.832 1.08803C35.1787 1.81336 37.3973 2.62403 39.488 3.52003L37.056 15.936H26.24C26.2827 15.4667 26.3467 14.912 26.432 14.272C26.5173 13.632 26.5813 12.9707 26.624 12.288C26.6667 11.5627 26.7093 10.8587 26.752 10.176C26.7947 9.49336 26.816 8.89603 26.816 8.38403C26.816 8.0427 26.7947 7.6587 26.752 7.23203C26.7093 6.76269 26.6027 6.31469 26.432 5.88803C26.2613 5.46136 26.0053 5.12003 25.664 4.86403C25.3227 4.56536 24.832 4.41603 24.192 4.41603C23.0827 4.41603 22.0587 4.88536 21.12 5.82403C20.224 6.72003 19.4133 7.93603 18.688 9.47203C17.9627 10.9654 17.3227 12.672 16.768 14.592C16.256 16.512 15.808 18.4747 15.424 20.48C15.0827 22.4427 14.8053 24.384 14.592 26.304C14.4213 28.1814 14.336 29.824 14.336 31.232C14.336 31.6587 14.3573 32.192 14.4 32.832C14.4427 33.472 14.5707 34.112 14.784 34.752C15.04 35.3494 15.3813 35.8827 15.808 36.352C16.2773 36.7787 16.9387 36.992 17.792 36.992C19.2 36.992 20.5653 36.224 21.888 34.688C23.2107 33.152 24.2133 30.592 24.896 27.008H19.52L20.48 22.72ZM65.1265 2.67029e-05C68.7958 2.67029e-05 71.7612 0.46936 74.0225 1.40803C76.3265 2.34669 78.1398 3.79736 79.4625 5.76003C80.3158 7.08269 80.9772 8.57603 81.4465 10.24C81.9158 11.904 82.1505 13.824 82.1505 16C82.1505 17.8774 81.9798 19.7547 81.6385 21.632C81.2972 23.5094 80.8065 25.3227 80.1665 27.072C79.5692 28.7787 78.8225 30.4 77.9265 31.936C77.0732 33.4294 76.1132 34.752 75.0465 35.904C73.0412 38.08 70.7158 39.616 68.0705 40.512C65.4678 41.3654 62.2465 41.792 58.4065 41.792C54.6945 41.792 51.7078 41.408 49.4465 40.64C47.1852 39.872 45.3932 38.6347 44.0705 36.928C43.1318 35.7334 42.3852 34.2187 41.8305 32.384C41.3185 30.5494 41.0625 28.2454 41.0625 25.472C41.0625 20.736 41.8945 16.512 43.5585 12.8C45.2652 9.04536 47.6758 6.08003 50.7905 3.90403C52.6678 2.58136 54.7585 1.60003 57.0625 0.960026C59.3665 0.320026 62.0545 2.67029e-05 65.1265 2.67029e-05ZM57.8945 37.312C58.8758 37.312 59.7932 36.8854 60.6465 36.032C61.5425 35.136 62.3532 33.9627 63.0785 32.512C63.8465 31.0187 64.5292 29.3334 65.1265 27.456C65.7665 25.5787 66.2998 23.6374 66.7265 21.632C67.1532 19.6267 67.4732 17.6427 67.6865 15.68C67.9425 13.6747 68.0705 11.8614 68.0705 10.24C68.0705 8.02136 67.8358 6.50669 67.3665 5.69603C66.9398 4.84269 66.2998 4.41603 65.4465 4.41603C64.4652 4.41603 63.5265 4.84269 62.6305 5.69603C61.7345 6.54936 60.8812 7.70136 60.0705 9.15203C59.3025 10.56 58.5985 12.2027 57.9585 14.08C57.3612 15.9147 56.8278 17.8134 56.3585 19.776C55.9318 21.7387 55.5905 23.68 55.3345 25.6C55.1212 27.52 55.0145 29.2907 55.0145 30.912C55.0145 33.344 55.2705 35.0294 55.7825 35.968C56.3372 36.864 57.0412 37.312 57.8945 37.312ZM121.189 2.67029e-05C124.858 2.67029e-05 127.824 0.46936 130.085 1.40803C132.389 2.34669 134.202 3.79736 135.525 5.76003C136.378 7.08269 137.04 8.57603 137.509 10.24C137.978 11.904 138.213 13.824 138.213 16C138.213 17.8774 138.042 19.7547 137.701 21.632C137.36 23.5094 136.869 25.3227 136.229 27.072C135.632 28.7787 134.885 30.4 133.989 31.936C133.136 33.4294 132.176 34.752 131.109 35.904C129.104 38.08 126.778 39.616 124.133 40.512C121.53 41.3654 118.309 41.792 114.469 41.792C110.757 41.792 107.77 41.408 105.509 40.64C103.248 39.872 101.456 38.6347 100.133 36.928C99.1943 35.7334 98.4477 34.2187 97.893 32.384C97.381 30.5494 97.125 28.2454 97.125 25.472C97.125 20.736 97.957 16.512 99.621 12.8C101.328 9.04536 103.738 6.08003 106.853 3.90403C108.73 2.58136 110.821 1.60003 113.125 0.960026C115.429 0.320026 118.117 2.67029e-05 121.189 2.67029e-05ZM113.957 37.312C114.938 37.312 115.856 36.8854 116.709 36.032C117.605 35.136 118.416 33.9627 119.141 32.512C119.909 31.0187 120.592 29.3334 121.189 27.456C121.829 25.5787 122.362 23.6374 122.789 21.632C123.216 19.6267 123.536 17.6427 123.749 15.68C124.005 13.6747 124.133 11.8614 124.133 10.24C124.133 8.02136 123.898 6.50669 123.429 5.69603C123.002 4.84269 122.362 4.41603 121.509 4.41603C120.528 4.41603 119.589 4.84269 118.693 5.69603C117.797 6.54936 116.944 7.70136 116.133 9.15203C115.365 10.56 114.661 12.2027 114.021 14.08C113.424 15.9147 112.89 17.8134 112.421 19.776C111.994 21.7387 111.653 23.68 111.397 25.6C111.184 27.52 111.077 29.2907 111.077 30.912C111.077 33.344 111.333 35.0294 111.845 35.968C112.4 36.864 113.104 37.312 113.957 37.312ZM155.786 26.752C155.572 27.6907 155.402 28.5014 155.274 29.184C155.146 29.8667 155.082 30.5067 155.082 31.104C155.082 32.5974 155.594 33.792 156.618 34.688C157.684 35.584 159.242 36.032 161.29 36.032C162.783 36.032 163.999 35.776 164.938 35.264C165.919 34.752 166.708 34.0694 167.306 33.216C167.946 32.3627 168.436 31.3814 168.778 30.272C169.162 29.1627 169.482 27.9894 169.738 26.752L175.178 0.640026H181.002L175.434 26.88C175.007 28.928 174.388 30.848 173.578 32.64C172.767 34.432 171.594 36.0107 170.058 37.376C168.564 38.7414 166.623 39.8294 164.234 40.64C161.844 41.408 158.879 41.792 155.338 41.792C150.431 41.792 146.804 41.0027 144.458 39.424C142.111 37.8027 140.938 35.328 140.938 32C140.938 30.5067 141.13 28.608 141.514 26.304C141.898 24 142.388 21.504 142.986 18.816L146.89 0.640026H161.418L155.786 26.752ZM217.986 5.50403H207.682L200.066 41.28H186.242L193.858 5.50403H183.682L184.834 0.640026H219.074L217.986 5.50403ZM247.918 22.72H264.494L260.782 41.28H253.23L252.014 37.184H251.758C250.648 38.464 249.326 39.552 247.79 40.448C246.296 41.344 244.334 41.792 241.902 41.792C240.024 41.792 238.211 41.4934 236.462 40.896C234.755 40.256 233.219 39.2747 231.854 37.952C230.531 36.5867 229.464 34.816 228.654 32.64C227.843 30.464 227.438 27.84 227.438 24.768C227.438 21.44 227.95 18.2827 228.974 15.296C229.998 12.3094 231.534 9.68536 233.582 7.42403C235.63 5.12003 238.19 3.3067 241.262 1.98403C244.334 0.66136 247.918 2.67029e-05 252.014 2.67029e-05C255.171 2.67029e-05 257.923 0.362694 260.27 1.08803C262.616 1.81336 264.835 2.62403 266.926 3.52003L264.494 15.936H253.678C253.72 15.4667 253.784 14.912 253.87 14.272C253.955 13.632 254.019 12.9707 254.062 12.288C254.104 11.5627 254.147 10.8587 254.19 10.176C254.232 9.49336 254.254 8.89603 254.254 8.38403C254.254 8.0427 254.232 7.6587 254.19 7.23203C254.147 6.76269 254.04 6.31469 253.87 5.88803C253.699 5.46136 253.443 5.12003 253.102 4.86403C252.76 4.56536 252.27 4.41603 251.63 4.41603C250.52 4.41603 249.496 4.88536 248.558 5.82403C247.662 6.72003 246.851 7.93603 246.126 9.47203C245.4 10.9654 244.76 12.672 244.206 14.592C243.694 16.512 243.246 18.4747 242.862 20.48C242.52 22.4427 242.243 24.384 242.03 26.304C241.859 28.1814 241.774 29.824 241.774 31.232C241.774 31.6587 241.795 32.192 241.838 32.832C241.88 33.472 242.008 34.112 242.222 34.752C242.478 35.3494 242.819 35.8827 243.246 36.352C243.715 36.7787 244.376 36.992 245.23 36.992C246.638 36.992 248.003 36.224 249.326 34.688C250.648 33.152 251.651 30.592 252.334 27.008H246.958L247.918 22.72ZM274.9 0.640026H301.844L300.82 5.50403H287.764L285.076 17.856H296.02L294.996 22.656H284.052L281.108 36.352H294.164L293.204 41.28H266.26L274.9 0.640026ZM333.904 41.28H318.928L318.032 31.104H306.192L301.648 41.28H295.44L314.32 0.640026H329.488L333.904 41.28ZM308.304 26.432H317.584L316.112 9.02403L308.304 26.432ZM376.82 10.304C376.82 12.8214 376.116 15.1467 374.708 17.28C373.3 19.4134 370.974 21.0347 367.732 22.144L375.156 41.28H360.884L355.252 23.552H354.548L350.772 41.28H336.948L345.588 0.640026H362.42C364.382 0.640026 366.238 0.768027 367.988 1.02403C369.737 1.23736 371.252 1.70669 372.532 2.43203C373.854 3.11469 374.9 4.09603 375.668 5.37603C376.436 6.61336 376.82 8.25603 376.82 10.304ZM358.388 19.456C359.497 19.456 360.436 19.0934 361.204 18.368C362.014 17.6 362.654 16.6827 363.124 15.616C363.636 14.5494 363.998 13.4187 364.212 12.224C364.425 10.9867 364.532 9.92003 364.532 9.02403C364.532 7.91469 364.34 6.97603 363.956 6.20803C363.572 5.39736 362.74 4.99203 361.46 4.99203H358.58L355.38 19.456H358.388Z" fill="#F9F8F4"/>
</svg>
